<?xml version="1.0" encoding="utf-8"?>
<!-- Generator: Adobe Illustrator 18.0.0, SVG Export Plug-In . SVG Version: 6.00 Build 0)  -->
<!DOCTYPE svg PUBLIC "-//W3C//DTD SVG 1.1//EN" "http://www.w3.org/Graphics/SVG/1.1/DTD/svg11.dtd">
<svg version="1.1" id="Layer_1" xmlns="http://www.w3.org/2000/svg" xmlns:xlink="http://www.w3.org/1999/xlink" x="0px" y="0px"
	 viewBox="0 0 48 48" enable-background="new 0 0 48 48" xml:space="preserve">
<g id="XMLID_988_">
	<polygon fill="#96CEB4" points="26.6200008,35.6399994 26.6200008,35.6500015 21,45 26,43 28,47 31.3500004,38.9599991 	"/>
</g>
<g id="XMLID_118_">
	<polygon fill="#96CEB4" points="37.3800011,35.6399994 37.3800011,35.6500015 43,45 38,43 36,47 32.6500015,38.9599991 	"/>
</g>
<g id="XMLID_1816_">
	<path fill="#FFFAD5" d="M43.0651855,1H1.934785C1.4206851,1,1,1.4078,1,1.9062999v27.1875C1,29.5921993,1.4206851,30,1.934785,30
		H24.369585h2.4396992C27.847084,28.2084007,29.7804852,27,32,27c2.2194824,0,4.1528854,1.2084007,5.1906853,3h5.8745003
		C43.5792847,30,44,29.5921993,44,29.0937996v-27.1875C44,1.4078,43.5792847,1,43.0651855,1z"/>
</g>
<g id="XMLID_147_">
	<circle fill="#FF6F69" cx="33" cy="34" r="5"/>
</g>
<g id="XMLID_343_">
	<path fill="#333745" d="M32,40c-3.859375,0-7-3.1401367-7-7s3.140625-7,7-7s7,3.1401367,7,7S35.859375,40,32,40z M32,28
		c-2.7568359,0-5,2.2431641-5,5s2.2431641,5,5,5s5-2.2431641,5-5S34.7568359,28,32,28z"/>
</g>
<g id="XMLID_252_">
	<path fill="#333745" d="M28,48c-0.3779297,0-0.7246094-0.2133789-0.8945313-0.5527344l-1.5888672-3.1772461l-4.1455078,1.6586914
		c-0.3955078,0.1582031-0.8535156,0.046875-1.1328125-0.2807617c-0.2783203-0.3271484-0.3164063-0.7949219-0.0957031-1.1630859
		l5.6005859-9.3168945c0.1699219-0.3110352,0.4990234-0.5229492,0.8769531-0.5229492c0.5527344,0,1,0.4428711,1,0.9951172v0.0097656
		c0,0.1816406-0.0498047,0.359375-0.1425781,0.5151367l-4.0888672,6.8027344l2.2402344-0.8964844
		c0.4804688-0.1928711,1.0332031,0.0161133,1.265625,0.4814453l1.0224609,2.0458984l2.5097656-6.0234375
		c0.2138672-0.5097656,0.7998047-0.7475586,1.3076172-0.5385742c0.5097656,0.2124023,0.7509766,0.7983398,0.5380859,1.3081055
		l-3.3496094,8.0400391c-0.1503906,0.3608398-0.4970703,0.6010742-0.8886719,0.6147461C28.0224609,48,28.0117188,48,28,48z"/>
</g>
<g id="XMLID_232_">
	<path fill="#333745" d="M36,48c-0.0117188,0-0.0224609,0-0.0341797-0.0004883
		c-0.3916016-0.0136719-0.7382813-0.2539063-0.8886719-0.6147461l-3.3496094-8.0400391
		c-0.2128906-0.5097656,0.0283203-1.0957031,0.5380859-1.3081055c0.5097656-0.2094727,1.0957031,0.0288086,1.3076172,0.5385742
		l2.5097656,6.0234375l1.0224609-2.0458984c0.2324219-0.465332,0.7851563-0.6743164,1.265625-0.4814453l2.2402344,0.8964844
		l-4.0888672-6.8027344c-0.0927734-0.1557617-0.1425781-0.3334961-0.1425781-0.5151367c0-0.5522461,0.4472656-1.0048828,1-1.0048828
		c0.3984375,0,0.7431641,0.230957,0.9033203,0.5668945l5.5742188,9.2729492
		c0.2207031,0.3681641,0.1826172,0.8359375-0.0957031,1.1630859c-0.2783203,0.3276367-0.7363281,0.4399414-1.1328125,0.2807617
		l-4.1455078-1.6586914l-1.5888672,3.1772461C36.7246094,47.7866211,36.3779297,48,36,48z"/>
</g>
<g id="XMLID_221_">
	<path fill="#333745" d="M37.5,10h-27C10.2236328,10,10,9.7763672,10,9.5S10.2236328,9,10.5,9h27C37.7763672,9,38,9.2236328,38,9.5
		S37.7763672,10,37.5,10z"/>
</g>
<g id="XMLID_231_">
	<path fill="#333745" d="M37.5,15h-27c-0.2763672,0-0.5-0.2236328-0.5-0.5s0.2236328-0.5,0.5-0.5h27
		c0.2763672,0,0.5,0.2236328,0.5,0.5S37.7763672,15,37.5,15z"/>
</g>
<g id="XMLID_249_">
	<path fill="#333745" d="M37.5,20h-27c-0.2763672,0-0.5-0.2236328-0.5-0.5s0.2236328-0.5,0.5-0.5h27
		c0.2763672,0,0.5,0.2236328,0.5,0.5S37.7763672,20,37.5,20z"/>
</g>
<g id="XMLID_250_">
	<path fill="#333745" d="M24,25H10.5c-0.2763672,0-0.5-0.2236328-0.5-0.5s0.2236328-0.5,0.5-0.5H24
		c0.2763672,0,0.5,0.2236328,0.5,0.5S24.2763672,25,24,25z"/>
</g>
<g id="XMLID_266_">
	<path fill="#333745" d="M46,34h-8c-0.5527344,0-1-0.4477539-1-1s0.4472656-1,1-1h8V2H2v30h24c0.5527344,0,1,0.4477539,1,1
		s-0.4472656,1-1,1H2c-1.1025391,0-2-0.8969727-2-2V2c0-1.1030273,0.8974609-2,2-2h44c1.1025391,0,2,0.8969727,2,2v30
		C48,33.1030273,47.1025391,34,46,34z"/>
</g>
</svg>
