<?xml version="1.0" encoding="utf-8"?>
<!-- Generator: Adobe Illustrator 18.0.0, SVG Export Plug-In . SVG Version: 6.00 Build 0)  -->
<!DOCTYPE svg PUBLIC "-//W3C//DTD SVG 1.1//EN" "http://www.w3.org/Graphics/SVG/1.1/DTD/svg11.dtd">
<svg version="1.1" id="Layer_1" xmlns="http://www.w3.org/2000/svg" xmlns:xlink="http://www.w3.org/1999/xlink" x="0px" y="0px"
	 viewBox="0 0 48 48" enable-background="new 0 0 48 48" xml:space="preserve">
<g id="XMLID_2392_">
	<path fill="#FF6F69" d="M39.5,46.5h-35c-1.1046076,0-2-0.8953972-2-2v-2c0-1.1045952,0.8953924-2,2-2h35V46.5z"/>
</g>
<g id="XMLID_2391_">
	<path fill="#96CEB4" d="M45.5,37.5h-35c-1.1046076,0-2-0.8953972-2-2v-2c0-1.1045952,0.8953924-2,2-2h35V37.5z"/>
</g>
<g id="XMLID_2390_">
	<path fill="#FFFAD5" d="M40.5,28.5h-35c-1.1046076,0-2-0.8953953-2-2v-2c0-1.1045952,0.8953924-2,2-2h35V28.5z"/>
</g>
<g id="XMLID_39_">
	<path fill="#BDF271" d="M25,18.1569042c0.9309998,0.3550949,1.9796925,0.5118008,2.9004917,0.0879993
		c0.2901993-0.1335983,0.5638008-0.2980995,0.8180008-0.4853992c2.0632-1.520504,3.0215988-4.2895994,2.730299-6.6813993
		c-0.1292992-1.0624008-0.5881996-2.1217003-1.4435997-2.8278999c-0.7998009-0.6602049-1.8964996-0.9143004-2.9213009-0.6430006
		C26.3935909,7.7901049,25.7298927,8.1246042,25,8.1765051c-0.7299995-0.0519009-1.3936081-0.3864002-2.0839081-0.5693007
		c-1.0247993-0.2712998-2.1215-0.0172043-2.9213009,0.6430006c-0.8553982,0.7061996-1.3142986,1.7654991-1.4435997,2.8278999
		c-0.2912998,2.3917999,0.6671009,5.1608953,2.7303009,6.6813993c0.2542,0.1872997,0.5277996,0.3518009,0.8179989,0.4853992
		C23.0201912,18.668705,24.0690002,18.5119991,25,18.1569042z"/>
</g>
<g id="XMLID_19_">
	<path fill="#333745" d="M42,48H4c-1.6542969,0-3-1.3457031-3-3v-5c0-1.6542969,1.3457031-3,3-3h38c0.5522461,0,1,0.4477539,1,1v9
		C43,47.5522461,42.5522461,48,42,48z M4,39c-0.5512695,0-1,0.4487305-1,1v5c0,0.5512695,0.4487305,1,1,1h37v-7H4z"/>
</g>
<g id="XMLID_32_">
	<path fill="#333745" d="M46,39H8c-1.6542969,0-3-1.3457031-3-3v-5c0-1.6542969,1.3457031-3,3-3h38c0.5522461,0,1,0.4477539,1,1v9
		C47,38.5522461,46.5522461,39,46,39z M8,30c-0.5512695,0-1,0.4487305-1,1v5c0,0.5512695,0.4487305,1,1,1h37v-7H8z"/>
</g>
<g id="XMLID_33_">
	<path fill="#333745" d="M43,30H5c-1.6542969,0-3-1.3457031-3-3v-5c0-1.6542969,1.3457031-3,3-3h38c0.5522461,0,1,0.4477539,1,1v9
		C44,29.5522461,43.5522461,30,43,30z M5,21c-0.5512695,0-1,0.4487305-1,1v5c0,0.5512695,0.4487305,1,1,1h37v-7H5z"/>
</g>
<g id="XMLID_38_">
	<path fill="#333745" d="M26.0654297,20C25.4135742,20,24.7207031,19.8754883,24,19.6289063
		C23.2792969,19.8754883,22.5864258,20,21.9345703,20l0,0c-0.6958008,0-1.3461914-0.1420898-1.934082-0.421875
		c-0.4082031-0.1943359-0.8061523-0.4379883-1.1831055-0.7246094c-2.6655273-2.0317383-4.1713867-5.815918-3.7475586-9.4160156
		c0.2050781-1.7441406,0.9584961-3.2509766,2.1206055-4.2431641c1.2358398-1.0541992,2.9594727-1.4458008,4.5087891-1.0219727
		c0.3173828,0.0864258,0.6308594,0.1972656,0.9448242,0.3095703c0.4750977,0.1694336,0.9248047,0.3300781,1.355957,0.375
		c0.4311523-0.0449219,0.8808594-0.2055664,1.355957-0.375c0.3139648-0.1123047,0.6274414-0.2231445,0.9453125-0.3095703
		c1.5473633-0.4238281,3.2724609-0.0322266,4.5078125,1.0214844c1.1625977,0.9926758,1.9160156,2.4995117,2.1210938,4.2436523
		c0.4238281,3.6000977-1.0820313,7.3842773-3.7475586,9.4155273c-0.3769531,0.2871094-0.7749023,0.5307617-1.1831055,0.7250977
		C27.4116211,19.8579102,26.7607422,20,26.0654297,20z M24,17.5634766c0.1245117,0,0.2490234,0.0234375,0.3666992,0.0698242
		c1.0981445,0.4321289,2.0483398,0.4838867,2.7734375,0.1391602c0.2841797-0.1352539,0.5634766-0.3071289,0.8305664-0.5107422
		c2.1225586-1.6171875,3.3173828-4.6679688,2.9731445-7.5908203c-0.1459961-1.2416992-0.6552734-2.2915039-1.4331055-2.9560547
		c-0.7363281-0.628418-1.7626953-0.8657227-2.6816406-0.6137695c-0.2695313,0.0737305-0.534668,0.1694336-0.8007813,0.2646484
		c-0.5771484,0.2060547-1.2314453,0.4394531-1.9550781,0.4926758c-0.0488281,0.0029297-0.0976563,0.0029297-0.1464844,0
		c-0.7236328-0.0532227-1.3779297-0.2866211-1.9550781-0.4926758c-0.2661133-0.0952148-0.53125-0.190918-0.800293-0.2646484
		c-0.921875-0.2509766-1.9458008-0.0146484-2.6826172,0.6142578c-0.7773438,0.6640625-1.2866211,1.7138672-1.4326172,2.9555664
		c-0.3442383,2.9228516,0.8505859,5.9736328,2.9731445,7.5913086c0.2670898,0.203125,0.5463867,0.375,0.8305664,0.5102539
		C21.1772461,17.9233398,21.5385742,18,21.9345703,18l0,0c0.5097656,0,1.0810547-0.1235352,1.6987305-0.3666992
		C23.7509766,17.5869141,23.8754883,17.5634766,24,17.5634766z"/>
</g>
<g id="XMLID_37_">
	<path fill="#333745" d="M19.5029297,11.1665039c-0.0053711,0-0.0102539,0-0.0151367,0
		c-0.2758789-0.0083008-0.4931641-0.2387695-0.4853516-0.5146484c0.0053711-0.1826172,0.0195313-0.3642578,0.0410156-0.5454102
		c0.0336914-0.2734375,0.2792969-0.4682617,0.5566406-0.4365234c0.2739258,0.0332031,0.4692383,0.2822266,0.4365234,0.5566406
		c-0.0185547,0.1508789-0.0297852,0.3022461-0.0341797,0.4545898
		C19.9941406,10.9521484,19.7719727,11.1665039,19.5029297,11.1665039z"/>
</g>
<g id="XMLID_35_">
	<path fill="#333745" d="M21.5170898,15.7114258c-0.1035156,0-0.2075195-0.0317383-0.296875-0.0981445
		c-0.7612305-0.5634766-1.3730469-1.3950195-1.769043-2.4047852c-0.1181641-0.3017578-0.2143555-0.6137695-0.2856445-0.9267578
		c-0.0615234-0.269043,0.1069336-0.5371094,0.3759766-0.5986328c0.2670898-0.0629883,0.5371094,0.105957,0.5986328,0.3759766
		c0.0615234,0.2685547,0.1430664,0.5317383,0.2421875,0.784668c0.3222656,0.8222656,0.8310547,1.5205078,1.4326172,1.9658203
		c0.222168,0.1640625,0.269043,0.4775391,0.1044922,0.6992188C21.8212891,15.6416016,21.6704102,15.7114258,21.5170898,15.7114258z"
		/>
</g>
<g id="XMLID_36_">
	<path fill="#333745" d="M23.9995117,6.8613281c-0.1289063,0-0.2597656-0.0253906-0.3862305-0.078125
		c-0.5068359-0.2128906-0.746582-0.7939453-0.5385742-1.3012695c0.0664063-0.1674805,0.5932617-1.6279297-0.7133789-2.7124023
		c-0.4248047-0.3525391-0.4833984-0.9829102-0.1308594-1.4082031c0.3535156-0.425293,0.9829102-0.4824219,1.4082031-0.1308594
		c1.987793,1.6494141,1.7084961,4.0029297,1.2836914,5.0170898C24.7617188,6.6303711,24.390625,6.8613281,23.9995117,6.8613281z"/>
</g>
<g id="XMLID_41_">
	<path fill="#333745" d="M16.5,44h-11C5.2236328,44,5,43.7763672,5,43.5S5.2236328,43,5.5,43h11c0.2763672,0,0.5,0.2236328,0.5,0.5
		S16.7763672,44,16.5,44z"/>
</g>
<g id="XMLID_34_">
	<path fill="#333745" d="M18.5,44c-0.1303711,0-0.2602539-0.050293-0.3500977-0.1503906
		C18.0498047,43.7597656,18,43.6298828,18,43.5c0-0.1303711,0.0498047-0.2602539,0.1396484-0.3500977
		c0.2001953-0.1899414,0.5200195-0.1899414,0.7099609-0.0102539C18.949707,43.2397461,19,43.3696289,19,43.5
		c0,0.1298828-0.050293,0.2597656-0.1503906,0.3496094C18.7597656,43.949707,18.6298828,44,18.5,44z"/>
</g>
<g id="XMLID_42_">
	<path fill="#333745" d="M20.5,35h-11C9.2236328,35,9,34.7763672,9,34.5S9.2236328,34,9.5,34h11c0.2763672,0,0.5,0.2236328,0.5,0.5
		S20.7763672,35,20.5,35z"/>
</g>
<g id="XMLID_40_">
	<path fill="#333745" d="M22.5,35c-0.1303711,0-0.25-0.050293-0.3500977-0.1401367C22.0498047,34.7597656,22,34.6298828,22,34.5
		c0-0.1303711,0.0498047-0.2602539,0.1499023-0.3500977c0.1796875-0.1899414,0.5200195-0.1899414,0.699707,0
		C22.949707,34.2397461,23,34.3696289,23,34.5c0,0.1298828-0.050293,0.2597656-0.1503906,0.3496094
		C22.75,34.949707,22.6298828,35,22.5,35z"/>
</g>
<g id="XMLID_44_">
	<path fill="#333745" d="M16.5,26h-11C5.2236328,26,5,25.7763672,5,25.5S5.2236328,25,5.5,25h11c0.2763672,0,0.5,0.2236328,0.5,0.5
		S16.7763672,26,16.5,26z"/>
</g>
<g id="XMLID_43_">
	<path fill="#333745" d="M18.5,26c-0.1303711,0-0.2602539-0.050293-0.3500977-0.1503906
		C18.0498047,25.7597656,18,25.6298828,18,25.5c0-0.1303711,0.0498047-0.2602539,0.1499023-0.3500977
		c0.1899414-0.1899414,0.5097656-0.1899414,0.699707-0.0102539C18.949707,25.2397461,19,25.3696289,19,25.5
		c0,0.1298828-0.050293,0.2597656-0.1503906,0.3496094C18.7597656,25.949707,18.6298828,26,18.5,26z"/>
</g>
</svg>
