<?xml version="1.0" encoding="utf-8"?>
<!-- Generator: Adobe Illustrator 18.0.0, SVG Export Plug-In . SVG Version: 6.00 Build 0)  -->
<!DOCTYPE svg PUBLIC "-//W3C//DTD SVG 1.1//EN" "http://www.w3.org/Graphics/SVG/1.1/DTD/svg11.dtd">
<svg version="1.1" id="Layer_1" xmlns="http://www.w3.org/2000/svg" xmlns:xlink="http://www.w3.org/1999/xlink" x="0px" y="0px"
	 viewBox="0 0 48 48" enable-background="new 0 0 48 48" xml:space="preserve">
<g id="XMLID_300_">
	<path fill="#FF6F69" d="M40.8846893,3.3473001c-0.084301-0.5455-0.5946884-0.9195001-1.1403008-0.8355l-7.8297997,1.2045999
		l-0.1085892,0.0168002l4.9598885,30.9998016l8.7653999-1.3312035L40.8846893,3.3473001z"/>
</g>
<g id="XMLID_1627_">
	<polygon fill="#FFFAD5" points="45.5312881,33.4017982 36.7658882,34.7330017 37.5730019,39.7773018 46.2801895,38.2457008 	"/>
</g>
<g id="XMLID_299_">
	<path fill="#FF6F69" d="M37.5730019,39.7773018l0.8601875,5.3758965l0.1086998-0.0166969l7.6100006-1.1708031
		c0.5461998-0.0840988,0.9206009-0.5949974,0.8362007-1.1409988l-0.707901-4.5789986L37.5730019,39.7773018z"/>
</g>
<g id="XMLID_461_">
	<path fill="#FFEEAD" d="M4,39.5V45h8c0.55229,0,1-0.4477005,1-1v-4.5H4z"/>
</g>
<g id="XMLID_562_">
	<rect x="4" y="34.3635139" fill="#FFFAD5" width="9" height="5.1364999"/>
</g>
<g id="XMLID_552_">
	<path fill="#FFEEAD" d="M13,4c0-0.5523-0.44771-1-1-1H4v31.3634987h9V4z"/>
</g>
<g id="XMLID_2447_">
	<rect x="19" y="34.3635139" fill="#FFFAD5" width="9" height="5.1364999"/>
</g>
<g id="XMLID_2446_">
	<path fill="#96CEB4" d="M19,39.5v4.9544983C19,44.7557983,19.3357887,45,19.75,45h7.5c0.4141884,0,0.75-0.2442017,0.75-0.5455017
		V39.5H19z"/>
</g>
<g id="XMLID_2445_">
	<path fill="#96CEB4" d="M28,3.8928001C28,3.3996999,27.6641884,3,27.25,3h-7.5C19.3357887,3,19,3.3996999,19,3.8928001v30.4706993
		h9V3.8928001z"/>
</g>
<g id="XMLID_489_">
	<path fill="#333745" d="M12,46H2c-1.1030273,0-2-0.8974609-2-2V4c0-1.1030273,0.8969727-2,2-2h10c1.1030273,0,2,0.8969727,2,2v40
		C14,45.1025391,13.1030273,46,12,46z M2,4v40h10.0014648L12,4H2z"/>
</g>
<g id="XMLID_554_">
	<path fill="#333745" d="M9.5,9h-5C4.2236328,9,4,8.7763672,4,8.5S4.2236328,8,4.5,8h5C9.7763672,8,10,8.2236328,10,8.5
		S9.7763672,9,9.5,9z"/>
</g>
<g id="XMLID_555_">
	<path fill="#333745" d="M9.5,12h-5C4.2236328,12,4,11.7763672,4,11.5S4.2236328,11,4.5,11h5c0.2763672,0,0.5,0.2236328,0.5,0.5
		S9.7763672,12,9.5,12z"/>
</g>
<g id="XMLID_456_">
	<path fill="#333745" d="M9.5,15h-5C4.2236328,15,4,14.7763672,4,14.5S4.2236328,14,4.5,14h5c0.2763672,0,0.5,0.2236328,0.5,0.5
		S9.7763672,15,9.5,15z"/>
</g>
<g id="XMLID_457_">
	<path fill="#333745" d="M9.5,18h-5C4.2236328,18,4,17.7763672,4,17.5S4.2236328,17,4.5,17h5c0.2763672,0,0.5,0.2236328,0.5,0.5
		S9.7763672,18,9.5,18z"/>
</g>
<g id="XMLID_459_">
	<path fill="#333745" d="M12.5356445,35H1.4643555c-0.2763672,0-0.5-0.2236328-0.5-0.5s0.2236328-0.5,0.5-0.5h11.0712891
		c0.2763672,0,0.5,0.2236328,0.5,0.5S12.8120117,35,12.5356445,35z"/>
</g>
<g id="XMLID_458_">
	<path fill="#333745" d="M12.5356445,40H1.4643555c-0.2763672,0-0.5-0.2236328-0.5-0.5s0.2236328-0.5,0.5-0.5h11.0712891
		c0.2763672,0,0.5,0.2236328,0.5,0.5S12.8120117,40,12.5356445,40z"/>
</g>
<g id="XMLID_476_">
	<path fill="#333745" d="M27,46H17c-1.1030273,0-2-0.8974609-2-2V4c0-1.1030273,0.8969727-2,2-2h10c1.1025391,0,2,0.8969727,2,2v40
		C29,45.1025391,28.1025391,46,27,46z M17,4v40h10.0019531L27,4H17z"/>
</g>
<g id="XMLID_475_">
	<path fill="#333745" d="M24.5,9h-5C19.2236328,9,19,8.7763672,19,8.5S19.2236328,8,19.5,8h5C24.7763672,8,25,8.2236328,25,8.5
		S24.7763672,9,24.5,9z"/>
</g>
<g id="XMLID_474_">
	<path fill="#333745" d="M24.5,12h-5c-0.2763672,0-0.5-0.2236328-0.5-0.5s0.2236328-0.5,0.5-0.5h5
		c0.2763672,0,0.5,0.2236328,0.5,0.5S24.7763672,12,24.5,12z"/>
</g>
<g id="XMLID_473_">
	<path fill="#333745" d="M24.5,15h-5c-0.2763672,0-0.5-0.2236328-0.5-0.5s0.2236328-0.5,0.5-0.5h5
		c0.2763672,0,0.5,0.2236328,0.5,0.5S24.7763672,15,24.5,15z"/>
</g>
<g id="XMLID_469_">
	<path fill="#333745" d="M24.5,18h-5c-0.2763672,0-0.5-0.2236328-0.5-0.5s0.2236328-0.5,0.5-0.5h5
		c0.2763672,0,0.5,0.2236328,0.5,0.5S24.7763672,18,24.5,18z"/>
</g>
<g id="XMLID_468_">
	<path fill="#333745" d="M27.5351563,35H16.4643555c-0.2763672,0-0.5-0.2236328-0.5-0.5s0.2236328-0.5,0.5-0.5h11.0708008
		c0.2763672,0,0.5,0.2236328,0.5,0.5S27.8115234,35,27.5351563,35z"/>
</g>
<g id="XMLID_467_">
	<path fill="#333745" d="M27.5351563,40H16.4643555c-0.2763672,0-0.5-0.2236328-0.5-0.5s0.2236328-0.5,0.5-0.5h11.0708008
		c0.2763672,0,0.5,0.2236328,0.5,0.5S27.8115234,40,27.5351563,40z"/>
</g>
<g id="XMLID_561_">
	<path fill="#333745" d="M36.1025391,46.5c-0.9931641,0-1.8232422-0.7128906-1.9746094-1.6953125L28.0244141,5.328125
		c-0.0820313-0.5268555,0.046875-1.0551758,0.3623047-1.4868164c0.3164063-0.4316406,0.78125-0.7143555,1.3095703-0.7954102
		l9.8955078-1.5224609c1.1152344-0.175293,2.1152344,0.5898438,2.28125,1.6713867l6.1035156,39.4770508
		c0.1679688,1.0908203-0.5830078,2.1142578-1.671875,2.2822266l-9.8964844,1.5224609
		C36.3056641,46.4921875,36.203125,46.5,36.1025391,46.5z M39.8964844,3.5l-9.8955078,1.5224609L36.1044922,44.5L46,42.9775391
		L39.8964844,3.5z"/>
</g>
<g id="XMLID_560_">
	<path fill="#333745" d="M33.1601563,9.5820313c-0.2421875,0-0.4550781-0.1767578-0.4931641-0.4238281
		C32.625,8.8852539,32.8125,8.6298828,33.0849609,8.5878906l4.9472656-0.7607422
		c0.28125-0.0375977,0.5283203,0.1455078,0.5703125,0.4179688c0.0419922,0.2729492-0.1455078,0.5283203-0.4179688,0.5703125
		l-4.9472656,0.7607422C33.2109375,9.5800781,33.1855469,9.5820313,33.1601563,9.5820313z"/>
</g>
<g id="XMLID_559_">
	<path fill="#333745" d="M33.6181641,12.5429688c-0.2421875,0-0.4550781-0.1767578-0.4931641-0.4238281
		c-0.0419922-0.2729492,0.1455078-0.5283203,0.4179688-0.5703125l4.9472656-0.7607422
		c0.28125-0.0400391,0.5283203,0.1450195,0.5703125,0.4179688s-0.1455078,0.5283203-0.4179688,0.5703125l-4.9472656,0.7607422
		C33.6689453,12.5410156,33.6435547,12.5429688,33.6181641,12.5429688z"/>
</g>
<g id="XMLID_558_">
	<path fill="#333745" d="M34.0761719,15.5039063c-0.2421875,0-0.4550781-0.1767578-0.4931641-0.4238281
		c-0.0419922-0.2729492,0.1455078-0.5283203,0.4179688-0.5703125l4.9472656-0.7607422
		c0.28125-0.0366211,0.5283203,0.1455078,0.5703125,0.4179688c0.0419922,0.2729492-0.1455078,0.5283203-0.4179688,0.5703125
		l-4.9472656,0.7607422C34.1269531,15.5019531,34.1015625,15.5039063,34.0761719,15.5039063z"/>
</g>
<g id="XMLID_557_">
	<path fill="#333745" d="M34.5341797,18.465332c-0.2421875,0-0.4550781-0.1767578-0.4931641-0.4238281
		c-0.0419922-0.2729492,0.1455078-0.5283203,0.4179688-0.5703125l4.9462891-0.7612305
		c0.2675781-0.0390625,0.5283203,0.1450195,0.5703125,0.4179688s-0.1455078,0.5283203-0.4179688,0.5703125l-4.9462891,0.7612305
		C34.5849609,18.4633789,34.5595703,18.465332,34.5341797,18.465332z"/>
</g>
<g id="XMLID_556_">
	<path fill="#333745" d="M34.125,35.7060547c-0.2421875,0-0.4550781-0.1767578-0.4931641-0.4238281
		c-0.0419922-0.2734375,0.1455078-0.5283203,0.4179688-0.5703125l10.953125-1.6855469
		c0.2675781-0.0380859,0.5283203,0.1445313,0.5703125,0.4179688s-0.1455078,0.5283203-0.4179688,0.5703125l-10.953125,1.6855469
		C34.1767578,35.7041016,34.1503906,35.7060547,34.125,35.7060547z"/>
</g>
<g id="XMLID_553_">
	<path fill="#333745" d="M34.8876953,40.640625c-0.2421875,0-0.4550781-0.1767578-0.4931641-0.4238281
		c-0.0419922-0.2734375,0.1455078-0.5283203,0.4179688-0.5703125l10.953125-1.6845703
		c0.2822266-0.0390625,0.5283203,0.1455078,0.5703125,0.4179688c0.0419922,0.2734375-0.1455078,0.5283203-0.4179688,0.5703125
		l-10.953125,1.6845703C34.9384766,40.6386719,34.9130859,40.640625,34.8876953,40.640625z"/>
</g>
</svg>
