<?xml version="1.0" encoding="utf-8"?>
<!-- Generator: Adobe Illustrator 18.0.0, SVG Export Plug-In . SVG Version: 6.00 Build 0)  -->
<!DOCTYPE svg PUBLIC "-//W3C//DTD SVG 1.1//EN" "http://www.w3.org/Graphics/SVG/1.1/DTD/svg11.dtd">
<svg version="1.1" id="Layer_1" xmlns="http://www.w3.org/2000/svg" xmlns:xlink="http://www.w3.org/1999/xlink" x="0px" y="0px"
	 viewBox="0 0 48 48" enable-background="new 0 0 48 48" xml:space="preserve">
<g id="XMLID_233_">
	<g id="XMLID_687_">
		<path fill="#FFCC5C" d="M8,41H4.1479998c-1.1607099,0-2.0777099-0.9847984-1.9949996-2.1425018L2.86729,28.8575001
			C2.94209,27.8108997,3.813,27,4.8621898,27H8V41z"/>
	</g>
	<g id="XMLID_121_">
		<path fill="#FFCC5C" d="M43.8520012,41H40V27h3.1377907c1.0492096,0,1.9200974,0.8108997,1.9948997,1.8575001l0.7143097,9.9999981
			C45.9296875,40.0152016,45.0126877,41,43.8520012,41z"/>
	</g>
	<g id="XMLID_674_">
		<path fill="#FFCC5C" d="M31,41H15c-1.1046104,0-2-0.895401-2-2v-8c0-1.1046009,0.8953896-2,2-2h16c1.1045876,0,2,0.8953991,2,2v8
			C33,40.104599,32.1045876,41,31,41z"/>
	</g>
	<g id="XMLID_1950_">
		<path fill="#FF6F69" d="M30,9H17c-4.4183102,0-8,3.5817003-8,8v26c0,2.2090988,1.7907896,4,4,4h21c2.2091904,0,4-1.7909012,4-4V17
			C38,12.5817003,34.4182892,9,30,9z M36,39c0,1.104599-0.8954124,2-2,2H16c-1.1046104,0-2-0.895401-2-2V29
			c0-1.1046009,0.8953896-2,2-2h18c1.1045876,0,2,0.8953991,2,2V39z"/>
	</g>
	<g id="XMLID_731_">
		<path fill="#333745" d="M36,48H12c-2.7568359,0-5-2.2431641-5-5V16C7,9.9345703,11.9345703,5,18,5h12
			c6.0654297,0,11,4.9345703,11,11v27C41,45.7568359,38.7568359,48,36,48z M18,7c-4.9624023,0-9,4.0371094-9,9v27
			c0,1.6542969,1.3457031,3,3,3h24c1.6542969,0,3-1.3457031,3-3V16c0-4.9628906-4.0371094-9-9-9H18z"/>
	</g>
	<g id="XMLID_495_">
		<path fill="#333745" d="M36,17c-0.5527344,0-1-0.4472656-1-1c0-2.7568359-2.2431641-5-5-5H18c-2.7568359,0-5,2.2431641-5,5
			c0,0.5527344-0.4477539,1-1,1s-1-0.4472656-1-1c0-3.859375,3.1401367-7,7-7h12c3.859375,0,7,3.140625,7,7
			C37,16.5527344,36.5527344,17,36,17z"/>
	</g>
	<g id="XMLID_756_">
		<path fill="#333745" d="M31,7H17c-0.5522461,0-1-0.4472656-1-1V3c0-1.6542969,1.3457031-3,3-3h10c1.6542969,0,3,1.3457031,3,3v3
			C32,6.5527344,31.5527344,7,31,7z M18,5h12V3c0-0.5517578-0.4482422-1-1-1H19c-0.5512695,0-1,0.4482422-1,1V5z"/>
	</g>
	<g id="XMLID_757_">
		<path fill="#333745" d="M8,42H4.1479492c-0.8295898,0-1.6298828-0.3486328-2.1953125-0.9550781
			c-0.565918-0.6074219-0.8564453-1.4306641-0.7973633-2.2587891l0.7143555-10C1.9814453,27.2236328,3.2958984,26,4.8623047,26H8
			c0.5522461,0,1,0.4472656,1,1v14C9,41.5527344,8.5522461,42,8,42z M4.8623047,28
			c-0.5224609,0-0.9604492,0.4082031-0.9975586,0.9287109l-0.7143555,10
			c-0.0200195,0.2802734,0.0742188,0.5478516,0.265625,0.7529297S3.8671875,40,4.1479492,40H7V28H4.8623047z"/>
	</g>
	<g id="XMLID_758_">
		<path fill="#333745" d="M43.8515625,42H40c-0.5527344,0-1-0.4472656-1-1V27c0-0.5527344,0.4472656-1,1-1h3.1376953
			c1.5654297,0,2.8798828,1.2236328,2.9921875,2.7861328l0.7138672,10c0.0595703,0.8271484-0.2304688,1.6503906-0.7958984,2.2578125
			S44.6816406,42,43.8515625,42z M41,40h2.8515625c0.28125,0,0.5410156-0.1132813,0.7324219-0.3183594
			s0.2851563-0.4726563,0.265625-0.7529297l-0.7138672-10C44.0976563,28.4082031,43.6601563,28,43.1376953,28H41V40z"/>
	</g>
	<g id="XMLID_759_">
		<path fill="#333745" d="M33,42H15c-1.6542969,0-3-1.3457031-3-3V29c0-1.6542969,1.3457031-3,3-3h18c1.6542969,0,3,1.3457031,3,3
			v10C36,40.6542969,34.6542969,42,33,42z M15,28c-0.5512695,0-1,0.4482422-1,1v10c0,0.5517578,0.4487305,1,1,1h18
			c0.5517578,0,1-0.4482422,1-1V29c0-0.5517578-0.4482422-1-1-1H15z"/>
	</g>
	<g id="XMLID_491_">
		<path fill="#333745" d="M35,31H13c-0.2763672,0-0.5-0.2236328-0.5-0.5S12.7236328,30,13,30h22c0.2763672,0,0.5,0.2236328,0.5,0.5
			S35.2763672,31,35,31z"/>
	</g>
	<g id="XMLID_492_">
		<path fill="#333745" d="M30.5,35c-0.8271484,0-1.5-0.6728516-1.5-1.5s0.6728516-1.5,1.5-1.5s1.5,0.6728516,1.5,1.5
			S31.3271484,35,30.5,35z M30.5,33c-0.2753906,0-0.5,0.2246094-0.5,0.5s0.2246094,0.5,0.5,0.5s0.5-0.2246094,0.5-0.5
			S30.7753906,33,30.5,33z"/>
	</g>
	<g id="XMLID_493_">
		<path fill="#333745" d="M17.5,35c-0.8271484,0-1.5-0.6728516-1.5-1.5s0.6728516-1.5,1.5-1.5s1.5,0.6728516,1.5,1.5
			S18.3271484,35,17.5,35z M17.5,33c-0.2758789,0-0.5,0.2246094-0.5,0.5s0.2241211,0.5,0.5,0.5s0.5-0.2246094,0.5-0.5
			S17.7758789,33,17.5,33z"/>
	</g>
	<g id="XMLID_494_">
		<path fill="#333745" d="M26,15h-4c-0.5522461,0-1-0.4472656-1-1s0.4477539-1,1-1h4c0.5527344,0,1,0.4472656,1,1
			S26.5527344,15,26,15z"/>
	</g>
</g>
</svg>
