<?xml version="1.0" encoding="utf-8"?>
<!-- Generator: Adobe Illustrator 18.0.0, SVG Export Plug-In . SVG Version: 6.00 Build 0)  -->
<!DOCTYPE svg PUBLIC "-//W3C//DTD SVG 1.1//EN" "http://www.w3.org/Graphics/SVG/1.1/DTD/svg11.dtd">
<svg version="1.1" id="Layer_1" xmlns="http://www.w3.org/2000/svg" xmlns:xlink="http://www.w3.org/1999/xlink" x="0px" y="0px"
	 viewBox="0 0 48 48" enable-background="new 0 0 48 48" xml:space="preserve">
<g id="XMLID_797_">
	<path fill="#FF6F69" d="M32,2.8696001C32,1.837,31.2724934,1,30.375,1h-9.75C19.7274952,1,19,1.837,19,2.8696001V8.5h13V2.8696001z
		"/>
</g>
<g id="XMLID_798_">
	<rect x="19" y="8.5000029" fill="#FFCC5C" width="13" height="28.1522007"/>
</g>
<g id="XMLID_2300_">
	<polygon fill="#FFFAD5" points="25.5,45 20,38 31,38 	"/>
</g>
<g id="XMLID_47_">
	<path fill="#333745" d="M24,48c-0.3037109,0-0.5913086-0.1381836-0.7807617-0.3754883l-8-10
		C15.0771484,37.4472656,15,37.2270508,15,37V3c0-1.6542969,1.3457031-3,3-3h12c1.6542969,0,3,1.3457031,3,3v34
		c0,0.2270508-0.0771484,0.4472656-0.2192383,0.6245117l-8,10C24.5913086,47.8618164,24.3037109,48,24,48z M17,36.6494141l7,8.75
		l7-8.75V3c0-0.5512695-0.4487305-1-1-1H18c-0.5512695,0-1,0.4487305-1,1V36.6494141z"/>
</g>
<g id="XMLID_61_">
	<path fill="#333745" d="M32,9H16c-0.2763672,0-0.5-0.2236328-0.5-0.5S15.7236328,8,16,8h16c0.2763672,0,0.5,0.2236328,0.5,0.5
		S32.2763672,9,32,9z"/>
</g>
<g id="XMLID_63_">
	<path fill="#333745" d="M21.5,34c-0.2763672,0-0.5-0.2236328-0.5-0.5v-22c0-0.2763672,0.2236328-0.5,0.5-0.5s0.5,0.2236328,0.5,0.5
		v22C22,33.7763672,21.7763672,34,21.5,34z"/>
</g>
<g id="XMLID_66_">
	<path fill="#333745" d="M26.5,34c-0.2763672,0-0.5-0.2236328-0.5-0.5v-22c0-0.2763672,0.2236328-0.5,0.5-0.5s0.5,0.2236328,0.5,0.5
		v22C27,33.7763672,26.7763672,34,26.5,34z"/>
</g>
<g id="XMLID_72_">
	<path fill="#333745" d="M27.6000977,43h-7.2001953c-0.2763672,0-0.5-0.2236328-0.5-0.5s0.2236328-0.5,0.5-0.5h7.2001953
		c0.2763672,0,0.5,0.2236328,0.5,0.5S27.8764648,43,27.6000977,43z"/>
</g>
<g id="XMLID_74_">
	<path fill="#333745" d="M32,38H16c-0.5522461,0-1-0.4477539-1-1s0.4477539-1,1-1h16c0.5522461,0,1,0.4477539,1,1
		S32.5522461,38,32,38z"/>
</g>
<g id="XMLID_67_">
	<path fill="#333745" d="M32,7H16c-0.2763672,0-0.5-0.2236328-0.5-0.5S15.7236328,6,16,6h16c0.2763672,0,0.5,0.2236328,0.5,0.5
		S32.2763672,7,32,7z"/>
</g>
</svg>
