<?xml version="1.0" encoding="utf-8"?>
<!-- Generator: Adobe Illustrator 18.0.0, SVG Export Plug-In . SVG Version: 6.00 Build 0)  -->
<!DOCTYPE svg PUBLIC "-//W3C//DTD SVG 1.1//EN" "http://www.w3.org/Graphics/SVG/1.1/DTD/svg11.dtd">
<svg version="1.1" id="Layer_1" xmlns="http://www.w3.org/2000/svg" xmlns:xlink="http://www.w3.org/1999/xlink" x="0px" y="0px"
	 viewBox="0 0 48 48" enable-background="new 0 0 48 48" xml:space="preserve">
<g id="XMLID_2115_">
	<path fill="#96CEB4" d="M41,19H7c-1.6569052,0-3-1.3430996-3-3l0,0c0-1.6569004,1.3430948-3,3-3h34c1.6568947,0,3,1.3430996,3,3
		l0,0C44,17.6569004,42.6568947,19,41,19z"/>
</g>
<g id="XMLID_84_">
	<path fill="#FF6F69" d="M27,13l3.5844936-8.5748997c0.1228008-0.3399997,0.4666004-0.5133998,0.7735996-0.3800998
		L33.6110954,4.9986c0.3130989,0.1332998,0.4665985,0.5201001,0.3499031,0.8600998L31.3124943,13H27z"/>
</g>
<g id="XMLID_94_">
	<rect x="13" y="3" fill="#FFFAD5" width="7" height="10"/>
</g>
<g id="XMLID_135_">
	<path fill="#FFCC5C" d="M30.503294,47H14.4966946c-0.8043003,0-1.4995003-0.5881996-1.6680002-1.411499L8,22h29
		l-4.8287048,23.588501C32.0027924,46.4118004,31.3075943,47,30.503294,47z"/>
</g>
<g id="XMLID_26_">
	<path fill="#333745" d="M33.3833008,48H14.6166992c-1.4052734,0-2.6386719-0.9975586-2.9331055-2.371582L6.0219727,19.2094727
		c-0.0629883-0.2954102,0.0107422-0.6035156,0.2001953-0.8383789C6.4121094,18.1362305,6.6982422,18,7,18h34
		c0.3017578,0,0.5878906,0.1362305,0.777832,0.3710938c0.1894531,0.2348633,0.2631836,0.5429688,0.2001953,0.8383789
		L36.3168945,45.628418C36.0219727,47.0024414,34.7885742,48,33.3833008,48z M8.2368164,20l5.4023438,25.2094727
		C13.7373047,45.6674805,14.1484375,46,14.6166992,46h18.7666016c0.4682617,0,0.8793945-0.3325195,0.9780273-0.7905273
		L39.7631836,20H8.2368164z"/>
</g>
<g id="XMLID_85_">
	<path fill="#333745" d="M41,20H7c-2.2055664,0-4-1.7944336-4-4s1.7944336-4,4-4h34c2.2055664,0,4,1.7944336,4,4
		S43.2055664,20,41,20z M7,14c-1.1030273,0-2,0.8969727-2,2s0.8969727,2,2,2h34c1.1030273,0,2-0.8969727,2-2s-0.8969727-2-2-2H7z"/>
</g>
<g id="XMLID_111_">
	<path fill="#333745" d="M36.1801758,42H11.8198242c-0.2763672,0-0.5-0.2236328-0.5-0.5s0.2236328-0.5,0.5-0.5h24.3603516
		c0.2763672,0,0.5,0.2236328,0.5,0.5S36.456543,42,36.1801758,42z"/>
</g>
<g id="XMLID_99_">
	<path fill="#333745" d="M37.25,37h-26.5c-0.2763672,0-0.5-0.2236328-0.5-0.5s0.2236328-0.5,0.5-0.5h26.5
		c0.2763672,0,0.5,0.2236328,0.5,0.5S37.5263672,37,37.25,37z"/>
</g>
<g id="XMLID_98_">
	<path fill="#333745" d="M11.5214844,23.3774414c-0.230957,0-0.4384766-0.1606445-0.4882813-0.3955078l-0.0805664-0.3774414
		c-0.0581055-0.2700195,0.1142578-0.5356445,0.3842773-0.5932617c0.2666016-0.0610352,0.5361328,0.1137695,0.5932617,0.3842773
		l0.0805664,0.3774414c0.0581055,0.2700195-0.1142578,0.5356445-0.3842773,0.5932617
		C11.5913086,23.3740234,11.5561523,23.3774414,11.5214844,23.3774414z"/>
</g>
<g id="XMLID_96_">
	<path fill="#333745" d="M13.1181641,30.875c-0.230957,0-0.4384766-0.1606445-0.4887695-0.3959961l-1.1972656-5.621582
		c-0.0571289-0.2700195,0.1152344-0.5356445,0.3852539-0.5932617c0.2685547-0.0581055,0.5351563,0.1147461,0.5932617,0.3852539
		l1.1972656,5.621582c0.0571289,0.2700195-0.1152344,0.5356445-0.3852539,0.5932617
		C13.1875,30.871582,13.152832,30.875,13.1181641,30.875z"/>
</g>
<g id="XMLID_110_">
	<path fill="#333745" d="M22,14c-0.5522461,0-1-0.4477539-1-1V2h-7v11c0,0.5522461-0.4477539,1-1,1s-1-0.4477539-1-1V1
		c0-0.5522461,0.4477539-1,1-1h9c0.5522461,0,1,0.4477539,1,1v12C23,13.5522461,22.5522461,14,22,14z"/>
</g>
<g id="XMLID_137_">
	<path fill="#333745" d="M33.5097656,14.0004883c-0.1162109,0-0.2338867-0.0205078-0.3491211-0.0634766
		c-0.5175781-0.1923828-0.7807617-0.7685547-0.5878906-1.2861328l3.4301758-9.2099609l-3.6660156-1.4394531l-1.1787109,3.2851563
		l-2.9907227,8.0610352c-0.1918945,0.5180664-0.7685547,0.7817383-1.2851563,0.5898438
		c-0.5180664-0.1918945-0.7822266-0.7675781-0.5898438-1.2851563L30.5019531,1.293457
		c0.2050781-0.5229492,0.5844727-0.9174805,1.0756836-1.1298828c0.4794922-0.2084961,1.0107422-0.215332,1.4936523-0.0224609
		l3.6621094,1.4272461c1.0117188,0.3974609,1.5234375,1.5498047,1.1435547,2.5703125l-3.4301758,9.2104492
		C34.296875,13.7514648,33.9155273,14.0004883,33.5097656,14.0004883z"/>
</g>
<g id="XMLID_151_">
	<path fill="#333745" d="M35.7124023,7.5888672c-0.0605469,0-0.1225586-0.0107422-0.1821289-0.0341797l-5.4912109-2.1499023
		c-0.2573242-0.1010742-0.3842773-0.3911133-0.2836914-0.6479492c0.1010742-0.2573242,0.3925781-0.3852539,0.6479492-0.2836914
		l5.4912109,2.1499023c0.2573242,0.1010742,0.3842773,0.3911133,0.2836914,0.6479492
		C36.1005859,7.4682617,35.9121094,7.5888672,35.7124023,7.5888672z"/>
</g>
<g id="XMLID_87_">
	<path fill="#333745" d="M14.5,5h-1C13.2236328,5,13,4.7763672,13,4.5S13.2236328,4,13.5,4h1C14.7763672,4,15,4.2236328,15,4.5
		S14.7763672,5,14.5,5z"/>
</g>
<g id="XMLID_100_">
	<path fill="#333745" d="M15.5,8h-2C13.2236328,8,13,7.7763672,13,7.5S13.2236328,7,13.5,7h2C15.7763672,7,16,7.2236328,16,7.5
		S15.7763672,8,15.5,8z"/>
</g>
<g id="XMLID_134_">
	<path fill="#333745" d="M14.5,11h-1c-0.2763672,0-0.5-0.2236328-0.5-0.5s0.2236328-0.5,0.5-0.5h1
		c0.2763672,0,0.5,0.2236328,0.5,0.5S14.7763672,11,14.5,11z"/>
</g>
</svg>
