<?xml version="1.0" encoding="utf-8"?>
<!-- Generator: Adobe Illustrator 18.0.0, SVG Export Plug-In . SVG Version: 6.00 Build 0)  -->
<!DOCTYPE svg PUBLIC "-//W3C//DTD SVG 1.1//EN" "http://www.w3.org/Graphics/SVG/1.1/DTD/svg11.dtd">
<svg version="1.1" id="Layer_1" xmlns="http://www.w3.org/2000/svg" xmlns:xlink="http://www.w3.org/1999/xlink" x="0px" y="0px"
	 viewBox="0 0 48 48" enable-background="new 0 0 48 48" xml:space="preserve">
<g id="XMLID_2199_">
	<path fill="#FFFAD5" d="M46,10.8845997C46,10.3980999,45.5806885,10,45.0681877,10H29.2272892h-7.4545994H5.9317899
		C5.4192901,10,5,10.3980999,5,10.8845997V28.5h41V10.8845997z"/>
</g>
<g id="XMLID_2200_">
	<path fill="#96CEB4" d="M5,28.5v3.6153984C5,32.6018982,5.4192901,33,5.9317899,33h39.1363983
		C45.5806885,33,46,32.6018982,46,32.1153984V28.5H5z"/>
</g>
<g id="XMLID_2075_">
	<path fill="#FF6F69" d="M26,9h-4c-1.1046104,0-2-0.8954-2-2l0,0c0-1.1046,0.8953896-2,2-2h4c1.1045895,0,2,0.8954,2,2l0,0
		C28,8.1046,27.1045895,9,26,9z"/>
</g>
<g id="XMLID_219_">
	<path fill="#333745" d="M45,34H3c-1.1030273,0-2-0.8969727-2-2V8c0-1.1030273,0.8969727-2,2-2h17c0.5522461,0,1,0.4477539,1,1
		s-0.4477539,1-1,1H3v24h42V8H28c-0.5527344,0-1-0.4477539-1-1s0.4472656-1,1-1h17c1.1025391,0,2,0.8969727,2,2v24
		C47,33.1030273,46.1025391,34,45,34z"/>
</g>
<g id="XMLID_220_">
	<path fill="#333745" d="M24,6c-0.5522461,0-1-0.4477539-1-1V1c0-0.5522461,0.4477539-1,1-1s1,0.4477539,1,1v4
		C25,5.5522461,24.5522461,6,24,6z"/>
</g>
<g id="XMLID_218_">
	<path fill="#333745" d="M12.0004883,48.0004883c-0.1000977,0-0.2011719-0.0151367-0.3017578-0.046875
		c-0.5263672-0.1665039-0.8188477-0.7280273-0.6523438-1.2548828l4.4199219-14
		c0.1660156-0.5268555,0.7280273-0.8188477,1.2548828-0.6523438c0.5263672,0.1665039,0.8188477,0.7280273,0.6523438,1.2548828
		l-4.4199219,14C12.8188477,47.7275391,12.4248047,48.0004883,12.0004883,48.0004883z"/>
</g>
<g id="XMLID_216_">
	<path fill="#333745" d="M36,48.0004883c-0.4248047,0-0.8193359-0.2729492-0.953125-0.6992188l-4.4199219-14
		c-0.1669922-0.5268555,0.125-1.0883789,0.6523438-1.2548828c0.5253906-0.1660156,1.0888672,0.1264648,1.2539063,0.6523438
		l4.4199219,14c0.1669922,0.5268555-0.125,1.0883789-0.6523438,1.2548828
		C36.2011719,47.9853516,36.0996094,48.0004883,36,48.0004883z"/>
</g>
<g id="XMLID_212_">
	<path fill="#333745" d="M24,46c-0.5522461,0-1-0.4477539-1-1V33c0-0.5522461,0.4477539-1,1-1s1,0.4477539,1,1v12
		C25,45.5522461,24.5522461,46,24,46z"/>
</g>
<g id="XMLID_217_">
	<path fill="#333745" d="M33.4697266,40H14.5297852c-0.5522461,0-1-0.4477539-1-1s0.4477539-1,1-1h18.9399414
		c0.5527344,0,1,0.4477539,1,1S34.0224609,40,33.4697266,40z"/>
</g>
<g id="XMLID_209_">
	<path fill="#333745" d="M46,29H2c-0.2763672,0-0.5-0.2236328-0.5-0.5S1.7236328,28,2,28h44c0.2763672,0,0.5,0.2236328,0.5,0.5
		S46.2763672,29,46,29z"/>
</g>
<g id="XMLID_211_">
	<path fill="#333745" d="M13.6567383,22c-0.0561523,0-0.1132813-0.0092773-0.168457-0.0292969
		c-0.2304688-0.0825195-0.3671875-0.3193359-0.3237305-0.5595703c0.3212891-1.7744141,0.5664063-3.5800781,0.7314453-5.3833008
		c-1.0517578,1.0805664-1.8847656,2.371582-2.4384766,3.7895508c-0.0917969,0.2353516-0.3447266,0.3671875-0.590332,0.3027344
		c-0.2446289-0.0629883-0.4042969-0.2988281-0.3710938-0.5498047c0.1245117-0.9448242,0.2197266-1.9018555,0.2856445-2.8613281
		c-0.8867188,1.1606445-1.8344727,2.2265625-2.9907227,3.0546875c-0.1708984,0.1230469-0.4003906,0.125-0.5737305,0.0058594
		c-0.1738281-0.1191406-0.2539063-0.3339844-0.2011719-0.5375977c0.6137695-2.3676758,1.4248047-4.7006836,2.4106445-6.934082
		c0.1118164-0.2514648,0.40625-0.3657227,0.659668-0.2553711c0.2524414,0.1118164,0.3666992,0.4067383,0.2553711,0.659668
		c-0.7470703,1.6914063-1.3911133,3.4414063-1.9228516,5.2207031c0.9125977-0.9008789,1.7050781-1.9741211,2.5390625-3.1474609
		c0.1279297-0.1801758,0.3588867-0.2563477,0.5673828-0.184082c0.2089844,0.0703125,0.347168,0.2695313,0.3398438,0.4897461
		C11.84375,15.75,11.8076172,16.4204102,11.7568359,17.0898438c0.6713867-1.0063477,1.487793-1.9116211,2.4233398-2.6796875
		c0.1547852-0.1264648,0.3706055-0.1479492,0.546875-0.0576172c0.1777344,0.0917969,0.2832031,0.2802734,0.269043,0.4794922
		c-0.1049805,1.4848633-0.2641602,2.9760742-0.4755859,4.4560547c0.5947266-0.7666016,1.2592773-1.4760742,1.9892578-2.1210938
		c0.1586914-0.1416016,0.3896484-0.1655273,0.5756836-0.0615234c0.1855469,0.1040039,0.284668,0.3144531,0.2475586,0.5234375
		l-0.2324219,1.3081055c0.2431641-0.3071289,0.4990234-0.6035156,0.7680664-0.8886719
		c0.1381836-0.1464844,0.3500977-0.1967773,0.5385742-0.1254883c0.1884766,0.0703125,0.3164063,0.246582,0.324707,0.4472656
		c0.0180664,0.4282227,0.0195313,0.8579102,0.0048828,1.2875977c0.4521484-0.465332,0.940918-0.8935547,1.4624023-1.2807617
		c0.1494141-0.112793,0.3491211-0.1298828,0.5180664-0.0478516c0.1679688,0.0825195,0.2758789,0.2519531,0.2797852,0.4389648
		c0.0175781,0.8491211-0.046875,1.7041016-0.1918945,2.5424805c-0.046875,0.2719727-0.3037109,0.4521484-0.578125,0.4072266
		c-0.2719727-0.046875-0.4541016-0.3056641-0.4072266-0.578125c0.0737305-0.4248047,0.1245117-0.8544922,0.1533203-1.2856445
		c-0.5351563,0.4833984-1.0224609,1.019043-1.4560547,1.6010742c-0.1367188,0.1816406-0.378418,0.2485352-0.5878906,0.1650391
		c-0.2104492-0.0849609-0.3374023-0.3012695-0.309082-0.5263672c0.0561523-0.4443359,0.09375-0.8920898,0.1123047-1.340332
		c-0.4155273,0.5458984-0.7866211,1.1264648-1.1103516,1.7348633c-0.1157227,0.2172852-0.3710938,0.3173828-0.6044922,0.237793
		c-0.2324219-0.0800781-0.3720703-0.3178711-0.3291016-0.5600586l0.3862305-2.1713867
		c-0.762207,0.8330078-1.4257813,1.7529297-1.9814453,2.7490234C14.0029297,21.9057617,13.8334961,22,13.6567383,22z"/>
</g>
<g id="XMLID_207_">
	<path fill="#333745" d="M26,10h-4c-1.6542969,0-3-1.3457031-3-3s1.3457031-3,3-3h4c1.6542969,0,3,1.3457031,3,3
		S27.6542969,10,26,10z M22,6c-0.5512695,0-1,0.4487305-1,1s0.4487305,1,1,1h4c0.5517578,0,1-0.4487305,1-1s-0.4482422-1-1-1H22z"/>
</g>
</svg>
